<?xml version="1.0" standalone="no"?>
<!DOCTYPE svg PUBLIC "-//W3C//DTD SVG 20010904//EN"
 "http://www.w3.org/TR/2001/REC-SVG-20010904/DTD/svg10.dtd">
<svg version="1.0" xmlns="http://www.w3.org/2000/svg"
 width="1024.000000pt" height="1024.000000pt" viewBox="0 0 1024.000000 1024.000000"
 preserveAspectRatio="xMidYMid meet">
<metadata>
Created by potrace 1.11, written by Peter Selinger 2001-2013
</metadata>
<g transform="translate(0.000000,1024.000000) scale(0.100000,-0.100000)"
fill="#000000" stroke="none">
<path d="M0 5120 l0 -5120 5120 0 5120 0 0 5120 0 5120 -5120 0 -5120 0 0
-5120z m5110 4111 c188 -44 298 -95 438 -201 270 -205 419 -505 477 -965 12
-93 17 -199 16 -372 -1 -134 2 -243 6 -243 5 0 37 48 73 106 101 164 182 266
340 428 284 291 516 417 841 458 89 11 110 10 236 -11 76 -12 172 -34 213 -47
260 -87 568 -317 804 -599 118 -141 157 -194 248 -340 195 -313 298 -577 329
-847 18 -152 0 -364 -42 -496 -47 -147 -139 -299 -241 -399 -46 -44 -103 -92
-128 -108 -25 -15 -76 -51 -115 -80 -38 -29 -113 -76 -165 -103 -139 -74 -462
-210 -560 -237 -47 -13 -96 -27 -110 -33 l-25 -10 25 -10 c14 -5 70 -22 125
-36 393 -105 673 -250 890 -458 244 -234 365 -503 365 -807 0 -150 -47 -378
-115 -561 -82 -219 -257 -517 -433 -736 -102 -127 -304 -322 -440 -424 -125
-94 -298 -186 -448 -237 l-109 -37 -200 0 c-188 0 -205 2 -290 27 -203 61
-421 196 -608 375 -99 96 -265 295 -345 413 -28 42 -59 85 -69 95 -17 17 -18
17 -24 -12 -4 -16 -7 -105 -8 -197 -1 -187 -33 -450 -75 -619 -66 -265 -205
-504 -373 -643 -157 -130 -271 -187 -488 -244 -95 -24 -113 -26 -350 -26 -276
0 -342 8 -597 71 -358 89 -719 259 -958 451 -98 80 -224 211 -288 302 -62 88
-134 235 -156 316 -23 86 -37 314 -27 427 27 269 158 558 448 982 67 98 71
106 49 106 -13 0 -54 -11 -91 -25 -130 -49 -351 -106 -510 -131 -142 -23 -180
-25 -345 -21 -136 4 -208 11 -272 26 -304 71 -547 256 -708 540 -57 101 -136
300 -165 421 -14 55 -37 174 -52 263 -24 144 -27 189 -26 402 0 257 17 410 68
630 27 113 95 295 154 412 107 213 300 407 484 486 66 29 81 31 187 32 112 0
117 -1 192 -37 57 -27 100 -58 165 -120 142 -135 308 -285 458 -413 77 -65
185 -158 240 -205 55 -48 172 -144 260 -214 88 -71 178 -142 200 -160 22 -18
76 -58 120 -90 153 -111 189 -161 147 -199 -28 -25 -63 -35 -173 -47 -114 -13
-139 -26 -139 -71 0 -50 29 -65 188 -94 81 -15 194 -37 252 -50 58 -13 129
-26 159 -29 80 -10 257 -80 334 -133 169 -115 332 -375 368 -588 17 -98 -7
-535 -37 -663 -17 -74 -18 -146 -4 -173 20 -36 62 -24 102 29 57 76 89 131
128 223 39 90 181 313 262 410 130 157 337 258 572 281 96 9 126 8 196 -6 112
-23 340 -110 544 -208 129 -62 182 -83 223 -86 l53 -4 0 42 c0 40 -5 47 -143
188 -148 153 -220 238 -323 382 -92 129 -103 151 -131 257 -21 79 -26 121 -26
218 0 107 3 131 32 224 37 120 89 228 139 291 76 94 263 309 361 413 110 118
121 143 75 173 -25 17 -28 16 -162 -49 -411 -197 -617 -267 -788 -267 -129 0
-329 59 -451 132 -147 88 -304 295 -497 658 -43 80 -85 153 -93 163 -22 23
-70 22 -83 -2 -15 -28 -13 -74 9 -203 40 -231 52 -633 22 -710 -9 -25 -16 -28
-53 -28 -119 0 -749 346 -1073 589 -230 173 -508 417 -609 535 -61 71 -123
197 -181 366 -56 164 -68 257 -63 469 4 154 7 173 36 258 65 191 152 327 306
478 302 297 745 510 1266 609 185 35 176 34 440 31 193 -3 250 -7 320 -24z
m-3595 -783 c15 -11 40 -39 56 -61 25 -35 29 -49 29 -106 0 -86 -29 -132 -103
-167 -63 -29 -106 -30 -156 -5 -140 72 -150 261 -17 342 46 28 154 27 191 -3z
m395 -93 c42 -22 70 -67 70 -112 0 -31 -8 -49 -36 -81 -34 -40 -38 -42 -93
-42 -34 0 -65 6 -78 15 -31 22 -63 78 -63 111 0 33 50 100 84 114 33 14 84 11
116 -5z m343 -198 c82 -62 97 -167 35 -241 -73 -89 -190 -88 -269 2 -30 33
-31 38 -27 108 3 65 7 77 33 105 42 45 81 60 142 56 37 -3 62 -11 86 -30z
m-450 -175 c27 -26 94 -103 150 -172 373 -459 830 -915 1307 -1305 242 -198
604 -458 755 -543 50 -28 142 -80 205 -117 63 -36 153 -84 200 -107 47 -22
148 -71 225 -108 183 -90 347 -152 481 -184 201 -49 269 -90 325 -198 18 -33
23 -59 22 -113 -1 -133 -58 -224 -161 -261 -53 -19 -176 -17 -257 5 -201 53
-725 305 -953 460 -554 374 -610 418 -1003 767 -114 101 -475 462 -605 605
-244 266 -483 560 -708 865 -170 231 -196 276 -196 335 0 56 33 103 83 118 49
15 78 4 130 -47z m-382 -51 c39 -39 44 -55 40 -131 -3 -43 -57 -99 -98 -102
-84 -4 -128 18 -155 79 -27 61 -18 103 33 154 35 35 44 39 90 39 46 0 55 -4
90 -39z m955 -172 c48 -29 63 -83 38 -136 -24 -47 -78 -79 -118 -69 -16 4 -41
20 -57 36 -24 24 -29 37 -29 78 0 43 5 55 31 81 37 38 85 41 135 10z m-786
-148 c63 -63 72 -103 39 -168 -31 -59 -65 -84 -123 -90 -60 -7 -101 11 -137
60 -40 55 -41 125 -3 174 37 48 81 73 132 73 38 0 48 -6 92 -49z m309 -278
c32 -40 36 -71 15 -111 -38 -70 -90 -78 -145 -22 -63 63 -20 160 71 160 30 0
43 -6 59 -27z"/>
</g>
</svg>
